# xmcd CD database file generated by OrangeCD 6.0
#
# Track frame offsets:
#	150
#	17345
#	29083
#	46560
#	66689
#	79926
#	99321
#	116167
#	129931
#	148046
#	167095
#	185229
#
# Disc length: 2739 seconds
#
# Revision: 4
# Processed by: cddbd v1.5.1PL2 Copyright (c) Steve Scherf et al.
# Submitted via: OrangeCD 6.0
#
DISCID=a60ab10c
DTITLE=Cooder Graw - Cooder Graw
DYEAR=1999
DGENRE=Country
TTITLE0=Motel Lights
TTITLE1=Llano Estacado
TTITLE2=State Line
TTITLE3=She Loves Too Much
TTITLE4=18 Wheels of Loving
TTITLE5=Two More Tears in Texas
TTITLE6=My Give a Damn is Broken
TTITLE7=Dirty Little Hometown Girl
TTITLE8=West Texas Wind
TTITLE9=Pictures in the Closet
TTITLE10=Shotgun Wedding
TTITLE11=Memphis, Texas
EXTD=YEAR: 1999
EXTT0=
EXTT1=
EXTT2=
EXTT3=
EXTT4=
EXTT5=
EXTT6=
EXTT7=
EXTT8=
EXTT9=
EXTT10=
EXTT11=
PLAYORDER=
